<?xml version="1.0"?><!DOCTYPE svg PUBLIC "-//W3C//DTD SVG 1.1//EN" "http://www.w3.org/Graphics/SVG/1.1/DTD/svg11.dtd"><svg version="1.1" encoding="utf-8" xmlns="http://www.w3.org/2000/svg" xmlns:xlink="http://www.w3.org/1999/xlink" width="594mm" height="420mm" viewBox="0 0 594 420"><!-- Generator: KYUB Editor - kyub.com --><rect width="594" height="420" style="stroke:black; stroke-width:0.6; fill:#ddbb88"/><g transform="translate(109.59,72.43) rotate(0)"><path d="M-100.04,71.43 L-108.59,71.43 L-108.59,63.62 L-104.19,63.62 L-104.19,56.74 L-108.59,56.74 L-108.59,49.34 L-104.19,49.34 L-104.19,42.46 L-108.59,42.46 L-108.59,35.05 L-104.19,35.05 L-104.19,28.17 L-108.59,28.17 L-108.59,20.37 L-100.24,20.37 L-100.24,23.94 L-92.81,23.94 L-92.81,20.37 L-84.85,20.37 L-84.85,23.94 L-77.42,23.94 L-77.42,20.37 L-69.47,20.37 L-69.47,23.94 L-62.04,23.94 L-62.04,20.37 L-54.08,20.37 L-54.08,23.94 L-46.65,23.94 L-46.65,20.37 L-38.7,20.37 L-38.7,23.94 L-31.27,23.94 L-31.27,20.37 L-23.31,20.37 L-23.31,23.94 L-15.88,23.94 L-15.88,20.37 L-8.59,20.37 L-8.59,12.41 L-4.19,12.41 L-4.19,4.31 L-8.59,4.31 L-8.59,-4.31 L-4.19,-4.31 L-4.19,-12.41 L-8.59,-12.41 L-8.59,-20.37 L-15.88,-20.37 L-15.88,-24.77 L-23.31,-24.77 L-23.31,-20.37 L-31.27,-20.37 L-31.27,-24.77 L-38.7,-24.77 L-38.7,-20.37 L-46.65,-20.37 L-46.65,-24.77 L-54.08,-24.77 L-54.08,-20.37 L-62.04,-20.37 L-62.04,-24.77 L-69.47,-24.77 L-69.47,-20.37 L-77.42,-20.37 L-77.42,-24.77 L-84.85,-24.77 L-84.85,-20.37 L-92.81,-20.37 L-92.81,-24.77 L-100.24,-24.77 L-100.24,-20.37 L-108.59,-20.37 L-108.59,-28.17 L-104.19,-28.17 L-104.19,-35.05 L-108.59,-35.05 L-108.59,-42.46 L-104.19,-42.46 L-104.19,-49.34 L-108.59,-49.34 L-108.59,-56.74 L-104.19,-56.74 L-104.19,-63.62 L-108.59,-63.62 L-108.59,-67.85 L-101.05,-67.85 L-101.05,-71.43 L-93.64,-71.43 L-93.64,-67.85 L-86.76,-67.85 L-86.76,-71.43 L-79.36,-71.43 L-79.36,-67.85 L-72.48,-67.85 L-72.48,-71.43 L-65.07,-71.43 L-65.07,-67.85 L-58.19,-67.85 L-58.19,-71.43 L-50.79,-71.43 L-50.79,-67.85 L-43.9,-67.85 L-43.9,-71.43 L-36.5,-71.43 L-36.5,-67.85 L-29.62,-67.85 L-29.62,-71.43 L-22.22,-71.43 L-22.22,-67.85 L-15.33,-67.85 L-15.33,-71.43 L-7.93,-71.43 L-7.93,-67.85 L-1.05,-67.85 L-1.05,-71.43 L6.36,-71.43 L6.36,-67.85 L13.24,-67.85 L13.24,-71.43 L20.64,-71.43 L20.64,-67.85 L27.52,-67.85 L27.52,-71.43 L34.93,-71.43 L34.93,-67.85 L42.21,-67.85 L42.21,-70.777 L42.371,-70.843 L48.305,-64.908 L47.921,-64.537 L45.774,-62.39 L51.48,-56.674 L54.01,-59.204 L59.913,-53.301 L59.917,-53.304 L60.004,-53.21 L60.084,-53.13 L60.081,-53.127 L61.359,-51.755 L62.595,-50.176 L63.711,-48.508 L64.696,-46.759 L64.993,-46.116 L61.743,-44.617 L62.23,-43.57 L62.824,-41.96 L63.287,-40.3 L63.629,-38.6 L63.725,-37.734 L67.274,-38.154 L67.39,-37.17 L67.47,-35.17 L67.39,-33.16 L67.159,-31.17 L66.802,-29.377 L63.292,-30.067 L63.287,-30.04 L62.824,-28.38 L62.23,-26.76 L61.506,-25.201 L60.662,-23.704 L60.646,-23.678 L63.621,-21.685 L62.595,-20.163 L61.359,-18.585 L60.081,-17.213 L60.084,-17.21 L60.004,-17.13 L59.917,-17.036 L59.913,-17.039 L54.07,-11.196 L51.54,-13.726 L45.894,-8.08 L48.424,-5.55 L42.874,0 L48.424,5.55 L45.894,8.08 L51.54,13.726 L54.07,11.196 L59.913,17.039 L59.917,17.036 L60.004,17.13 L60.084,17.21 L60.081,17.213 L61.359,18.585 L62.595,20.164 L63.711,21.822 L64.696,23.571 L64.992,24.224 L61.743,25.714 L62.23,26.76 L62.824,28.38 L63.286,30.04 L63.629,31.73 L63.725,32.596 L67.274,32.176 L67.39,33.17 L67.47,35.17 L67.39,37.17 L67.159,39.16 L66.802,40.963 L63.294,40.263 L63.287,40.299 L62.824,41.96 L62.23,43.57 L61.506,45.139 L60.662,46.636 L60.646,46.662 L63.621,48.655 L62.595,50.177 L61.359,51.755 L60.081,53.127 L60.084,53.13 L60.004,53.21 L59.917,53.304 L59.913,53.301 L54.01,59.204 L51.48,56.674 L45.774,62.39 L47.83,64.446 L47.834,64.442 L48.304,64.91 L42.47,70.744 L42.47,71.43 L33.92,71.43 L33.92,67.03 L26.28,67.03 L26.28,71.43 L18.13,71.43 L18.13,67.03 L10.49,67.03 L10.49,71.43 L2.34,71.43 L2.34,67.03 L-5.3,67.03 L-5.3,71.43 L-13.45,71.43 L-13.45,67.03 L-21.09,67.03 L-21.09,71.43 L-29.24,71.43 L-29.24,67.03 L-36.88,67.03 L-36.88,71.43 L-45.03,71.43 L-45.03,67.03 L-52.67,67.03 L-52.67,71.43 L-60.82,71.43 L-60.82,67.03 L-68.46,67.03 L-68.46,71.43 L-76.61,71.43 L-76.61,67.03 L-84.25,67.03 L-84.25,71.43 L-92.4,71.43 L-92.4,67.03 L-100.04,67.03 ZM53.756,47.21 L54.771,46.115 L55.595,45.074 L56.329,43.972 L56.974,42.821 L57.53,41.63 L57.986,40.39 L58.343,39.11 L58.601,37.81 L58.75,36.5 L58.8,35.17 L58.75,33.84 L58.601,32.52 L58.343,31.22 L57.986,29.95 L57.53,28.71 L56.974,27.509 L56.329,26.358 L55.595,25.257 L54.771,24.225 L53.756,23.13 L34,3.364 L34,-3.364 L53.756,-23.13 L54.771,-24.225 L55.595,-25.257 L56.329,-26.358 L56.974,-27.509 L57.53,-28.71 L57.986,-29.95 L58.343,-31.22 L58.601,-32.52 L58.75,-33.84 L58.8,-35.17 L58.75,-36.5 L58.601,-37.81 L58.343,-39.11 L57.986,-40.39 L57.53,-41.63 L56.974,-42.821 L56.329,-43.972 L55.595,-45.074 L54.771,-46.115 L53.756,-47.21 L38.196,-62.77 L-99.93,-62.77 L-99.93,-29.03 L-4.696,-29.03 L0.07,-24.264 L0.07,24.264 L-4.696,29.03 L-99.93,29.03 L-99.93,62.77 L38.196,62.77 Z" style="stroke:black; stroke-width:0.8; fill:#88dd88; fill-opacity:0.7"/><text font-size="20" transform="translate(-4.235,20.648) rotate(0) translate(-10,5)" style="fill:black; font-family: sans-serif">6</text></g><g transform="translate(72.43,254.45) rotate(0)"><path d="M-63.62,67.304 L-71.43,67.304 L-71.43,59.504 L-67.03,59.504 L-67.03,52.614 L-71.43,52.614 L-71.43,45.214 L-67.03,45.214 L-67.03,38.334 L-71.43,38.334 L-71.43,30.934 L-67.03,30.934 L-67.03,24.044 L-71.43,24.044 L-71.43,16.644 L-67.03,16.644 L-67.03,9.764 L-71.43,9.764 L-71.43,2.354 L-67.03,2.354 L-67.03,-4.526 L-71.43,-4.526 L-71.43,-11.926 L-67.03,-11.926 L-67.03,-18.806 L-71.43,-18.806 L-71.43,-26.216 L-67.03,-26.216 L-67.03,-33.096 L-71.43,-33.096 L-71.43,-40.496 L-67.03,-40.496 L-67.03,-47.386 L-71.43,-47.386 L-71.43,-54.786 L-67.03,-54.786 L-67.03,-61.666 L-71.43,-61.666 L-71.43,-69.066 L-67.03,-69.066 L-67.03,-75.956 L-71.43,-75.956 L-71.43,-83.756 L-70.744,-83.756 L-64.908,-89.592 L-64.537,-89.207 L-62.39,-87.06 L-56.674,-92.766 L-59.204,-95.296 L-53.301,-101.199 L-53.304,-101.203 L-53.21,-101.29 L-53.13,-101.37 L-53.127,-101.367 L-51.755,-102.645 L-50.177,-103.881 L-48.655,-104.907 L-46.662,-101.932 L-46.636,-101.948 L-45.139,-102.792 L-43.57,-103.516 L-42.487,-103.913 L-43.727,-107.263 L-43.06,-107.51 L-41.13,-108.053 L-39.16,-108.445 L-37.896,-108.59 L-37.476,-105.041 L-36.89,-105.116 L-35.17,-105.176 L-33.44,-105.116 L-32.854,-105.041 L-32.434,-108.59 L-31.17,-108.445 L-29.21,-108.053 L-27.28,-107.51 L-26.613,-107.263 L-27.843,-103.913 L-26.76,-103.516 L-25.201,-102.792 L-23.704,-101.948 L-23.678,-101.932 L-21.685,-104.907 L-20.163,-103.881 L-18.585,-102.645 L-17.213,-101.367 L-17.21,-101.37 L-17.13,-101.29 L-17.036,-101.203 L-17.039,-101.199 L-11.196,-95.356 L-13.726,-92.826 L-8.08,-87.18 L-5.55,-89.71 L0,-84.16 L5.55,-89.71 L8.08,-87.18 L13.726,-92.826 L11.196,-95.356 L17.039,-101.199 L17.036,-101.203 L17.13,-101.29 L17.21,-101.37 L17.213,-101.367 L18.585,-102.645 L20.163,-103.881 L21.685,-104.907 L23.678,-101.932 L23.704,-101.948 L25.201,-102.792 L26.76,-103.516 L27.843,-103.913 L26.613,-107.263 L27.28,-107.51 L29.21,-108.053 L31.17,-108.445 L32.434,-108.59 L32.854,-105.041 L33.44,-105.116 L35.17,-105.176 L36.89,-105.116 L37.476,-105.041 L37.896,-108.59 L39.16,-108.445 L41.13,-108.053 L43.06,-107.51 L43.727,-107.263 L42.487,-103.913 L43.57,-103.516 L45.139,-102.792 L46.636,-101.948 L46.662,-101.932 L48.655,-104.907 L50.177,-103.881 L51.755,-102.645 L53.127,-101.367 L53.13,-101.37 L53.21,-101.29 L53.304,-101.203 L53.301,-101.199 L59.204,-95.296 L56.674,-92.766 L62.39,-87.06 L64.537,-89.207 L64.908,-89.592 L70.843,-83.657 L70.777,-83.496 L67.85,-83.496 L67.85,-76.836 L71.43,-76.836 L71.43,-70.056 L67.85,-70.056 L67.85,-63.786 L71.43,-63.786 L71.43,-57.006 L67.85,-57.006 L67.85,-50.746 L71.43,-50.746 L71.43,-43.966 L67.85,-43.966 L67.85,-37.706 L71.43,-37.706 L71.43,-30.926 L67.85,-30.926 L67.85,-24.656 L71.43,-24.656 L71.43,-17.876 L67.85,-17.876 L67.85,-11.616 L71.43,-11.616 L71.43,-4.836 L67.85,-4.836 L67.85,1.424 L71.43,1.424 L71.43,8.204 L67.85,8.204 L67.85,14.474 L71.43,14.474 L71.43,21.254 L67.85,21.254 L67.85,27.514 L71.43,27.514 L71.43,34.294 L67.85,34.294 L67.85,40.554 L71.43,40.554 L71.43,47.334 L67.85,47.334 L67.85,53.604 L71.43,53.604 L71.43,60.384 L67.85,60.384 L67.85,62.904 L62.69,62.904 L62.69,67.304 L54.1,67.304 L54.1,62.904 L46.03,62.904 L46.03,67.304 L37.43,67.304 L37.43,62.904 L29.36,62.904 L29.36,67.304 L20.37,67.304 L20.37,58.954 L24.77,58.954 L24.77,51.524 L20.37,51.524 L20.37,43.564 L24.77,43.564 L24.77,36.134 L20.37,36.134 L20.37,28.184 L24.77,28.184 L24.77,20.754 L20.37,20.754 L20.37,12.794 L24.77,12.794 L24.77,5.364 L20.37,5.364 L20.37,-2.586 L24.77,-2.586 L24.77,-10.016 L20.37,-10.016 L20.37,-17.976 L24.77,-17.976 L24.77,-25.406 L20.37,-25.406 L20.37,-32.696 L12.41,-32.696 L12.41,-37.096 L4.31,-37.096 L4.31,-32.696 L-4.31,-32.696 L-4.31,-37.096 L-12.41,-37.096 L-12.41,-32.696 L-20.37,-32.696 L-20.37,-26.426 L-23.94,-26.426 L-23.94,-20.026 L-20.37,-20.026 L-20.37,-13.096 L-23.94,-13.096 L-23.94,-6.686 L-20.37,-6.686 L-20.37,0.234 L-23.94,0.234 L-23.94,6.644 L-20.37,6.644 L-20.37,13.574 L-23.94,13.574 L-23.94,19.974 L-20.37,19.974 L-20.37,26.904 L-23.94,26.904 L-23.94,33.314 L-20.37,33.314 L-20.37,40.234 L-23.94,40.234 L-23.94,46.644 L-20.37,46.644 L-20.37,53.574 L-23.94,53.574 L-23.94,59.974 L-20.37,59.974 L-20.37,67.304 L-28.17,67.304 L-28.17,62.904 L-35.05,62.904 L-35.05,67.304 L-42.46,67.304 L-42.46,62.904 L-49.34,62.904 L-49.34,67.304 L-56.74,67.304 L-56.74,62.904 L-63.62,62.904 Z" style="stroke:black; stroke-width:0.8; fill:#88dd88; fill-opacity:0.7"/><text font-size="20" transform="translate(34.041,-64.504) rotate(0) translate(-10,5)" style="fill:black; font-family: sans-serif">5</text></g><g transform="translate(185.89,221.39) rotate(90)"><path d="M-59.08,40.03 L-67.24,40.03 L-67.24,35.63 L-70.262,35.63 L-70.261,33.07 L-71.13,33.07 L-71.13,31.73 L-75.53,31.73 L-75.53,26.18 L-70.263,26.18 L-70.263,19.9 L-71.13,19.9 L-71.13,15.93 L-75.53,15.93 L-75.53,13.02 L-70.263,13.02 L-70.263,6.73 L-71.13,6.73 L-71.13,0.13 L-75.53,0.13 L-75.53,-0.15 L-70.263,-0.15 L-70.263,-6.43 L-75.53,-6.43 L-75.53,-8.03 L-71.13,-8.03 L-71.13,-13.32 L-70.263,-13.32 L-70.263,-19.6 L-75.53,-19.6 L-75.53,-23.83 L-71.13,-23.83 L-71.13,-26.48 L-70.263,-26.48 L-70.262,-32.77 L-75.53,-32.77 L-75.53,-36.46 L-67.99,-36.46 L-67.99,-40.03 L-60.58,-40.03 L-60.58,-36.46 L-53.7,-36.46 L-53.7,-40.03 L-46.3,-40.03 L-46.3,-36.46 L-39.42,-36.46 L-39.42,-40.03 L-32.01,-40.03 L-32.01,-36.46 L-25.13,-36.46 L-25.13,-40.03 L-17.73,-40.03 L-17.73,-36.46 L-10.84,-36.46 L-10.84,-40.03 L-3.44,-40.03 L-3.44,-36.46 L3.44,-36.46 L3.44,-40.03 L10.84,-40.03 L10.84,-36.46 L17.73,-36.46 L17.73,-40.03 L25.13,-40.03 L25.13,-36.46 L32.01,-36.46 L32.01,-40.03 L39.42,-40.03 L39.42,-36.46 L46.3,-36.46 L46.3,-40.03 L53.7,-40.03 L53.7,-36.46 L60.58,-36.46 L60.58,-40.03 L67.99,-40.03 L67.99,-36.46 L71.13,-36.46 L71.13,-31.73 L75.53,-31.73 L75.53,-23.57 L71.13,-23.57 L71.13,-15.93 L75.53,-15.93 L75.53,-7.77 L71.13,-7.77 L71.13,-0.13 L75.53,-0.13 L75.53,8.03 L71.13,8.03 L71.13,15.67 L75.53,15.67 L75.53,23.83 L71.13,23.83 L71.13,31.47 L75.53,31.47 L75.53,35.63 L67.24,35.63 L67.24,40.03 L59.08,40.03 L59.08,35.63 L51.45,35.63 L51.45,40.03 L43.29,40.03 L43.29,35.63 L35.66,35.63 L35.66,40.03 L27.5,40.03 L27.5,35.63 L19.87,35.63 L19.87,40.03 L11.71,40.03 L11.71,35.63 L4.08,35.63 L4.08,40.03 L-4.08,40.03 L-4.08,35.63 L-11.71,35.63 L-11.71,40.03 L-19.87,40.03 L-19.87,35.63 L-27.5,35.63 L-27.5,40.03 L-35.66,40.03 L-35.66,35.63 L-43.29,35.63 L-43.29,40.03 L-51.45,40.03 L-51.45,35.63 L-59.08,35.63 Z" style="stroke:black; stroke-width:0.8; fill:#88dd88; fill-opacity:0.7"/><text font-size="20" transform="translate(21.418,-0.625) rotate(0) translate(-10,5)" style="fill:black; font-family: sans-serif">12</text></g><g transform="translate(76.53,363.78) rotate(90)"><path d="M-32.77,75.53 L-40.03,75.53 L-40.03,67.73 L-35.63,67.73 L-35.63,60.84 L-40.03,60.84 L-40.03,53.44 L-35.63,53.44 L-35.63,46.56 L-40.03,46.56 L-40.03,39.16 L-35.63,39.16 L-35.63,32.27 L-40.03,32.27 L-40.03,24.87 L-35.63,24.87 L-35.63,17.99 L-40.03,17.99 L-40.03,10.58 L-35.63,10.58 L-35.63,3.7 L-40.03,3.7 L-40.03,-3.7 L-35.63,-3.7 L-35.63,-10.58 L-40.03,-10.58 L-40.03,-17.99 L-35.63,-17.99 L-35.63,-24.87 L-40.03,-24.87 L-40.03,-32.27 L-35.63,-32.27 L-35.63,-39.16 L-40.03,-39.16 L-40.03,-46.56 L-35.63,-46.56 L-35.63,-53.44 L-40.03,-53.44 L-40.03,-60.84 L-35.63,-60.84 L-35.63,-67.73 L-40.03,-67.73 L-40.03,-75.53 L-32.19,-75.53 L-32.19,-71.13 L-25.27,-71.13 L-25.27,-75.53 L-17.82,-75.53 L-17.82,-71.13 L-10.9,-71.13 L-10.9,-75.53 L-3.46,-75.53 L-3.46,-71.13 L3.46,-71.13 L3.46,-75.53 L10.9,-75.53 L10.9,-71.13 L17.82,-71.13 L17.82,-75.53 L25.27,-75.53 L25.27,-71.13 L32.19,-71.13 L32.19,-75.53 L40.03,-75.53 L40.03,-68.35 L36.46,-68.35 L36.46,-62.09 L40.03,-62.09 L40.03,-55.3 L36.46,-55.3 L36.46,-49.04 L40.03,-49.04 L40.03,-42.26 L36.46,-42.26 L36.46,-36 L40.03,-36 L40.03,-29.22 L36.46,-29.22 L36.46,-22.96 L40.03,-22.96 L40.03,-16.17 L36.46,-16.17 L36.46,-9.91 L40.03,-9.91 L40.03,-3.13 L36.46,-3.13 L36.46,3.13 L40.03,3.13 L40.03,9.91 L36.46,9.91 L36.46,16.17 L40.03,16.17 L40.03,22.96 L36.46,22.96 L36.46,29.22 L40.03,29.22 L40.03,36 L36.46,36 L36.46,42.26 L40.03,42.26 L40.03,49.04 L36.46,49.04 L36.46,55.3 L40.03,55.3 L40.03,62.09 L36.46,62.09 L36.46,68.35 L40.03,68.35 L40.03,75.53 L36.2,75.53 L36.2,70.262 L33.493,70.262 L33.07,70.26 L33.07,72.88 L33.05,72.88 L33.05,75.53 L32.19,75.53 L32.19,71.13 L26.18,71.13 L26.18,70.263 L19.9,70.263 L19.9,75.53 L17.82,75.53 L17.82,71.13 L13.02,71.13 L13.02,70.263 L6.73,70.263 L6.73,75.53 L3.46,75.53 L3.46,71.13 L-0.15,71.13 L-0.15,70.263 L-6.43,70.263 L-6.43,75.53 L-10.9,75.53 L-10.9,71.13 L-13.32,71.13 L-13.32,70.263 L-19.6,70.263 L-19.6,75.53 L-25.27,75.53 L-25.27,71.13 L-26.48,71.13 L-26.48,70.263 L-32.77,70.262 Z" style="stroke:black; stroke-width:0.8; fill:#88dd88; fill-opacity:0.7"/><text font-size="20" transform="translate(0.625,32.676) rotate(0) translate(-10,5)" style="fill:black; font-family: sans-serif">10</text></g><g transform="translate(204.59,338.95) rotate(90)"><path d="M-32.787,50.53 L-35.63,50.53 L-35.63,38.438 L-40.03,38.438 L-40.03,30.485 L-35.63,30.485 L-35.63,23.053 L-40.03,23.053 L-40.03,15.101 L-35.63,15.101 L-35.63,7.668 L-40.03,7.668 L-40.03,-0.284 L-35.63,-0.284 L-35.63,-7.716 L-40.03,-7.716 L-40.03,-15.668 L-35.63,-15.668 L-35.63,-23.101 L-40.03,-23.101 L-40.03,-31.053 L-35.63,-31.053 L-35.63,-38.485 L-40.03,-38.485 L-40.03,-46.438 L-35.63,-46.438 L-35.63,-50.13 L-33.047,-50.13 L-33.047,-54.53 L-26.203,-54.53 L-26.203,-50.13 L-19.88,-50.13 L-19.88,-54.53 L-13.037,-54.53 L-13.037,-50.13 L-6.713,-50.13 L-6.713,-54.53 L0.13,-54.53 L0.13,-50.13 L6.453,-50.13 L6.453,-54.53 L13.297,-54.53 L13.297,-50.13 L19.62,-50.13 L19.62,-54.53 L26.463,-54.53 L26.463,-50.13 L32.787,-50.13 L32.787,-54.53 L36.455,-54.53 L36.455,-47.463 L40.03,-47.463 L40.03,-40.537 L36.455,-40.537 L36.455,-34.13 L40.03,-34.13 L40.03,-27.203 L36.455,-27.203 L36.455,-20.797 L40.03,-20.797 L40.03,-13.87 L36.455,-13.87 L36.455,-7.463 L40.03,-7.463 L40.03,-0.537 L36.455,-0.537 L36.455,5.87 L40.03,5.87 L40.03,12.797 L36.455,12.797 L36.455,19.203 L40.03,19.203 L40.03,26.13 L36.455,26.13 L36.455,32.537 L40.03,32.537 L40.03,39.463 L36.455,39.463 L36.455,46.13 L33.047,46.13 L33.047,50.53 L26.203,50.53 L26.203,46.13 L19.88,46.13 L19.88,50.53 L13.037,50.53 L13.037,46.13 L6.713,46.13 L6.713,50.53 L-0.13,50.53 L-0.13,46.13 L-6.453,46.13 L-6.453,50.53 L-13.297,50.53 L-13.297,46.13 L-19.62,46.13 L-19.62,50.53 L-26.463,50.53 L-26.463,46.13 L-32.787,46.13 Z" style="stroke:black; stroke-width:0.8; fill:#88dd88; fill-opacity:0.7"/><text font-size="20" transform="translate(0.625,-3.867) rotate(0) translate(-10,5)" style="fill:black; font-family: sans-serif">3</text></g><g transform="translate(233.59,103.83) rotate(0)"><path d="M-34.485,40.03 L-42.438,40.03 L-42.438,35.63 L-50.13,35.63 L-50.13,31.73 L-54.53,31.73 L-54.53,23.57 L-50.13,23.57 L-50.13,15.93 L-54.53,15.93 L-54.53,7.77 L-50.13,7.77 L-50.13,0.13 L-54.53,0.13 L-54.53,-8.03 L-50.13,-8.03 L-50.13,-15.67 L-54.53,-15.67 L-54.53,-23.83 L-50.13,-23.83 L-50.13,-31.47 L-54.53,-31.47 L-54.53,-36.455 L-42.438,-36.455 L-42.438,-40.03 L-34.485,-40.03 L-34.485,-36.455 L-27.053,-36.455 L-27.053,-40.03 L-19.101,-40.03 L-19.101,-36.455 L-11.668,-36.455 L-11.668,-40.03 L-3.716,-40.03 L-3.716,-36.455 L3.716,-36.455 L3.716,-40.03 L11.668,-40.03 L11.668,-36.455 L19.101,-36.455 L19.101,-40.03 L27.053,-40.03 L27.053,-36.455 L34.485,-36.455 L34.485,-40.03 L42.438,-40.03 L42.438,-36.455 L46.13,-36.455 L46.13,-31.73 L50.53,-31.73 L50.53,-23.57 L46.13,-23.57 L46.13,-15.93 L50.53,-15.93 L50.53,-7.77 L46.13,-7.77 L46.13,-0.13 L50.53,-0.13 L50.53,8.03 L46.13,8.03 L46.13,15.67 L50.53,15.67 L50.53,23.83 L46.13,23.83 L46.13,31.47 L50.53,31.47 L50.53,35.63 L42.438,35.63 L42.438,40.03 L34.485,40.03 L34.485,35.63 L27.053,35.63 L27.053,40.03 L19.101,40.03 L19.101,35.63 L11.668,35.63 L11.668,40.03 L3.716,40.03 L3.716,35.63 L-3.716,35.63 L-3.716,40.03 L-11.668,40.03 L-11.668,35.63 L-19.101,35.63 L-19.101,40.03 L-27.053,40.03 L-27.053,35.63 L-34.485,35.63 Z" style="stroke:black; stroke-width:0.8; fill:#88dd88; fill-opacity:0.7"/><text font-size="20" transform="translate(-7.62,-0.625) rotate(0) translate(-10,5)" style="fill:black; font-family: sans-serif">4</text></g><g transform="translate(274.44,256.89) rotate(0)"><path d="M49.265,-33.047 L49.265,-26.223 L40.033,-26.223 L40.033,-19.86 L49.265,-19.86 L49.265,-13.057 L40.033,-13.057 L40.033,-6.693 L49.265,-6.693 L49.265,0.11 L40.033,0.11 L40.033,6.473 L49.265,6.473 L49.265,13.277 L40.033,13.277 L40.033,19.64 L49.265,19.64 L49.265,26.443 L40.033,26.443 L40.033,32.787 L43.208,32.787 L43.208,32.807 L49.265,32.807 L49.265,36.455 L34.875,36.455 L34.875,40.03 L26.281,40.03 L26.281,36.455 L13.043,36.455 L13.043,40.03 L7.618,40.03 L7.618,36.455 L2.713,36.455 L2.713,40.03 L-2.713,40.03 L-2.713,36.455 L-7.618,36.455 L-7.618,40.03 L-13.043,40.03 L-13.043,36.455 L-26.193,36.455 L-26.193,40.03 L-34.698,40.03 L-34.698,36.455 L-42.943,36.455 L-42.943,33.047 L-46.518,33.047 L-46.518,26.203 L-42.943,26.203 L-42.943,19.88 L-46.518,19.88 L-46.518,13.037 L-42.943,13.037 L-42.943,6.713 L-46.518,6.713 L-46.518,-0.13 L-42.943,-0.13 L-42.943,-6.453 L-46.518,-6.453 L-46.518,-13.297 L-42.943,-13.297 L-42.943,-19.62 L-46.518,-19.62 L-46.518,-26.463 L-42.943,-26.463 L-42.943,-32.787 L-46.518,-32.787 L-46.518,-35.63 L-34.698,-35.63 L-34.698,-40.03 L-26.193,-40.03 L-26.193,-35.63 L-13.043,-35.63 L-13.043,-40.03 L-5.035,-40.03 L-5.035,-35.63 L2.453,-35.63 L2.453,-40.03 L10.46,-40.03 L10.46,-35.63 L26.281,-35.63 L26.281,-40.03 L34.875,-40.03 L34.875,-35.63 L40.033,-35.63 L40.033,-33.027 L48.605,-33.027 L48.605,-33.047 ZM25.383,-32.195 L25.383,32.195 L35.773,32.195 L35.773,-32.195 ZM-35.508,-32.195 L-35.508,32.195 L-25.383,32.195 L-25.383,-32.195 Z" style="stroke:black; stroke-width:0.8; fill:#88dd88; fill-opacity:0.7"/><text font-size="20" transform="translate(0.125,0.254) rotate(0) translate(-10,5)" style="fill:black; font-family: sans-serif">1</text></g><g transform="translate(310.38,338.95) rotate(0)"><path d="M46.518,-33.047 L46.518,-26.203 L42.943,-26.203 L42.943,-19.88 L46.518,-19.88 L46.518,-13.037 L42.943,-13.037 L42.943,-6.713 L46.518,-6.713 L46.518,0.13 L42.943,0.13 L42.943,6.453 L46.518,6.453 L46.518,13.297 L42.943,13.297 L42.943,19.62 L46.518,19.62 L46.518,26.463 L42.943,26.463 L42.943,32.787 L46.518,32.787 L46.518,36.455 L34.698,36.455 L34.698,40.03 L26.193,40.03 L26.193,36.455 L13.043,36.455 L13.043,40.03 L7.618,40.03 L7.618,36.455 L2.713,36.455 L2.713,40.03 L-2.713,40.03 L-2.713,36.455 L-7.618,36.455 L-7.618,40.03 L-13.043,40.03 L-13.043,36.455 L-26.281,36.455 L-26.281,40.03 L-34.874,40.03 L-34.874,36.455 L-40.033,36.455 L-40.033,33.027 L-48.605,33.027 L-48.605,33.047 L-49.265,33.047 L-49.265,26.223 L-40.033,26.223 L-40.033,19.86 L-49.265,19.86 L-49.265,13.057 L-40.033,13.057 L-40.033,6.693 L-49.265,6.693 L-49.265,-0.11 L-40.033,-0.11 L-40.033,-6.473 L-49.265,-6.473 L-49.265,-13.277 L-40.033,-13.277 L-40.033,-19.64 L-49.265,-19.64 L-49.265,-26.443 L-40.033,-26.443 L-40.033,-32.787 L-43.208,-32.787 L-43.208,-32.807 L-49.265,-32.807 L-49.265,-35.63 L-34.874,-35.63 L-34.874,-40.03 L-26.281,-40.03 L-26.281,-35.63 L-13.043,-35.63 L-13.043,-40.03 L-5.035,-40.03 L-5.035,-35.63 L2.453,-35.63 L2.453,-40.03 L10.46,-40.03 L10.46,-35.63 L26.193,-35.63 L26.193,-40.03 L34.698,-40.03 L34.698,-35.63 L42.943,-35.63 L42.943,-33.047 ZM25.383,-32.195 L25.383,32.195 L35.508,32.195 L35.508,-32.195 ZM-35.773,-32.195 L-35.773,32.195 L-25.383,32.195 L-25.383,-32.195 Z" style="stroke:black; stroke-width:0.8; fill:#88dd88; fill-opacity:0.7"/><text font-size="20" transform="translate(-0.082,0.254) rotate(0) translate(-10,5)" style="fill:black; font-family: sans-serif">7</text></g><g transform="translate(311.65,174.83) rotate(90)"><path d="M-25.006,25.53 L-32.448,25.53 L-32.448,21.955 L-35.63,21.955 L-35.63,17.987 L-40.03,17.987 L-40.03,10.584 L-35.63,10.584 L-35.63,3.701 L-40.03,3.701 L-40.03,-3.701 L-35.63,-3.701 L-35.63,-10.584 L-40.03,-10.584 L-40.03,-17.987 L-35.63,-17.987 L-35.63,-21.13 L-31.73,-21.13 L-31.73,-25.53 L-23.57,-25.53 L-23.57,-21.13 L-15.93,-21.13 L-15.93,-25.53 L-7.77,-25.53 L-7.77,-21.13 L-0.13,-21.13 L-0.13,-25.53 L8.03,-25.53 L8.03,-21.13 L15.67,-21.13 L15.67,-25.53 L23.83,-25.53 L23.83,-21.13 L31.47,-21.13 L31.47,-25.53 L36.455,-25.53 L36.455,-16.797 L40.03,-16.797 L40.03,-8.203 L36.455,-8.203 L36.455,-0.13 L40.03,-0.13 L40.03,8.463 L36.455,8.463 L36.455,16.537 L40.03,16.537 L40.03,21.955 L32.448,21.955 L32.448,25.53 L25.006,25.53 L25.006,21.955 L18.085,21.955 L18.085,25.53 L10.643,25.53 L10.643,21.955 L3.721,21.955 L3.721,25.53 L-3.721,25.53 L-3.721,21.955 L-10.643,21.955 L-10.643,25.53 L-18.085,25.53 L-18.085,21.955 L-25.006,21.955 Z" style="stroke:black; stroke-width:0.8; fill:#88dd88; fill-opacity:0.7"/><text font-size="20" transform="translate(-13.303,0.399) rotate(0) translate(-10,5)" style="fill:black; font-family: sans-serif">11</text></g><g transform="translate(311.65,92.77) rotate(180)"><path d="M-10.584,40.03 L-17.987,40.03 L-17.987,35.63 L-21.13,35.63 L-21.13,31.73 L-25.53,31.73 L-25.53,23.57 L-21.13,23.57 L-21.13,15.93 L-25.53,15.93 L-25.53,7.77 L-21.13,7.77 L-21.13,0.13 L-25.53,0.13 L-25.53,-8.03 L-21.13,-8.03 L-21.13,-15.67 L-25.53,-15.67 L-25.53,-23.83 L-21.13,-23.83 L-21.13,-31.47 L-25.53,-31.47 L-25.53,-36.455 L-17.987,-36.455 L-17.987,-40.03 L-10.584,-40.03 L-10.584,-36.455 L-3.701,-36.455 L-3.701,-40.03 L3.701,-40.03 L3.701,-36.455 L10.584,-36.455 L10.584,-40.03 L17.987,-40.03 L17.987,-36.455 L21.955,-36.455 L21.955,-33.047 L25.53,-33.047 L25.53,-26.203 L21.955,-26.203 L21.955,-19.88 L25.53,-19.88 L25.53,-13.037 L21.955,-13.037 L21.955,-6.713 L25.53,-6.713 L25.53,0.13 L21.955,0.13 L21.955,6.453 L25.53,6.453 L25.53,13.297 L21.955,13.297 L21.955,19.62 L25.53,19.62 L25.53,26.463 L21.955,26.463 L21.955,32.787 L25.53,32.787 L25.53,35.63 L17.987,35.63 L17.987,40.03 L10.584,40.03 L10.584,35.63 L3.701,35.63 L3.701,40.03 L-3.701,40.03 L-3.701,35.63 L-10.584,35.63 Z" style="stroke:black; stroke-width:0.8; fill:#88dd88; fill-opacity:0.7"/><text font-size="20" transform="translate(0.399,-3.73) rotate(0) translate(-10,5)" style="fill:black; font-family: sans-serif">13</text></g><g transform="translate(219.09,37.2) rotate(270)"><path d="M-4.05,40.03 L-12.669,40.03 L-12.669,35.63 L-21.028,35.63 L-21.028,33.047 L-24.603,33.047 L-24.603,26.203 L-21.028,26.203 L-21.028,19.88 L-24.603,19.88 L-24.603,13.037 L-21.028,13.037 L-21.028,6.713 L-24.603,6.713 L-24.603,-0.13 L-21.028,-0.13 L-21.028,-6.453 L-24.603,-6.453 L-24.603,-13.297 L-21.028,-13.297 L-21.028,-19.62 L-24.603,-19.62 L-24.603,-26.463 L-21.028,-26.463 L-21.028,-32.787 L-24.603,-32.787 L-24.603,-36.455 L-12.669,-36.455 L-12.669,-40.03 L-4.05,-40.03 L-4.05,-36.455 L4.05,-36.455 L4.05,-40.03 L12.669,-40.03 L12.669,-36.455 L21.028,-36.455 L21.028,-31.73 L25.428,-31.73 L25.428,-23.57 L21.028,-23.57 L21.028,-15.93 L25.428,-15.93 L25.428,-7.77 L21.028,-7.77 L21.028,-0.13 L25.428,-0.13 L25.428,8.03 L21.028,8.03 L21.028,15.67 L25.428,15.67 L25.428,23.83 L21.028,23.83 L21.028,31.47 L25.428,31.47 L25.428,35.63 L12.669,35.63 L12.669,40.03 L4.05,40.03 L4.05,35.63 L-4.05,35.63 Z" style="stroke:black; stroke-width:0.8; fill:#88dd88; fill-opacity:0.7"/><text font-size="20" transform="translate(0.022,3.356) rotate(0) translate(-10,5)" style="fill:black; font-family: sans-serif">2</text></g><g transform="translate(167.34,386.19) rotate(90)"><path d="M-2.86,13.28 L-5.21,13.28 L-5.21,6.47 L0.72,6.47 L0.72,12.7 L-2.86,12.7 ZM-2.86,0.11 L-5.21,0.11 L-5.21,-6.69 L0.72,-6.69 L0.72,-1.67 L-2.86,-1.67 ZM-2.86,-13.06 L-5.21,-13.06 L-5.21,-19.86 L0.72,-19.86 L0.72,-16.03 L-2.86,-16.03 ZM-2.86,-26.22 L-5.21,-26.22 L-5.21,-33.03 L0.72,-33.03 L0.72,-30.39 L-2.86,-30.39 Z" style="stroke:black; stroke-width:0.8; fill:#88dd88; fill-opacity:0.7"/><text font-size="20" transform="translate(-2.245,9.435) rotate(0) translate(-10,5)" style="fill:black; font-family: sans-serif">9</text></g><g transform="translate(233.13,201.58) rotate(180)"><path d="M5.21,19.86 L-0.72,19.86 L-0.72,14.35 L3.68,14.35 L3.68,13.05 L5.21,13.05 ZM5.21,6.69 L-0.72,6.69 L-0.72,-0.11 L5.21,-0.11 ZM5.21,-6.48 L3.68,-6.48 L3.68,-9.09 L-0.72,-9.09 L-0.72,-13.28 L5.21,-13.28 Z" style="stroke:black; stroke-width:0.8; fill:#88dd88; fill-opacity:0.7"/><text font-size="20" transform="translate(2.245,3.29) rotate(0) translate(-10,5)" style="fill:black; font-family: sans-serif">8</text></g></svg>